<svg viewBox="0 0 600 600" xmlns="http://www.w3.org/2000/svg">
  <defs>
    <radialGradient id="tomatoSkin" cx="45%" cy="40%" r="60%">
      <stop offset="0%" stop-color="#ff6a5f"/>
      <stop offset="45%" stop-color="#e83a2d"/>
      <stop offset="85%" stop-color="#b71c1c"/>
      <stop offset="100%" stop-color="#8b0f0f"/>
    </radialGradient>
    <radialGradient id="cheekGlow" cx="50%" cy="60%" r="50%">
      <stop offset="0%" stop-color="rgba(255,180,180,0.7)"/>
      <stop offset="60%" stop-color="rgba(255,140,140,0.15)"/>
      <stop offset="100%" stop-color="rgba(255,120,120,0)"/>
    </radialGradient>
    <radialGradient id="highlight" cx="35%" cy="30%" r="30%">
      <stop offset="0%" stop-color="rgba(255,255,255,0.9)"/>
      <stop offset="60%" stop-color="rgba(255,255,255,0.2)"/>
      <stop offset="100%" stop-color="rgba(255,255,255,0)"/>
    </radialGradient>
    <radialGradient id="lipGrad" cx="50%" cy="50%" r="60%">
      <stop offset="0%" stop-color="#c2433a"/>
      <stop offset="70%" stop-color="#8e2a24"/>
      <stop offset="100%" stop-color="#6d1c18"/>
    </radialGradient>
    <linearGradient id="stemGrad" x1="0" y1="0" x2="0" y2="1">
      <stop offset="0%" stop-color="#3c7f2e"/>
      <stop offset="60%" stop-color="#276325"/>
      <stop offset="100%" stop-color="#184a1b"/>
    </linearGradient>
    <radialGradient id="eyeWhite" cx="50%" cy="50%" r="50%">
      <stop offset="0%" stop-color="#ffffff"/>
      <stop offset="100%" stop-color="#e7f0ff"/>
    </radialGradient>
    <radialGradient id="irisGrad" cx="50%" cy="50%" r="50%">
      <stop offset="0%" stop-color="#2a6fb3"/>
      <stop offset="60%" stop-color="#144c87"/>
      <stop offset="100%" stop-color="#0c2e50"/>
    </radialGradient>
    <radialGradient id="noseShade" cx="50%" cy="40%" r="60%">
      <stop offset="0%" stop-color="rgba(120,20,20,0.0)"/>
      <stop offset="85%" stop-color="rgba(40,0,0,0.25)"/>
      <stop offset="100%" stop-color="rgba(30,0,0,0.35)"/>
    </radialGradient>
    <filter id="soft" x="-20%" y="-20%" width="140%" height="140%">
      <feGaussianBlur in="SourceGraphic" stdDeviation="1.2"/>
    </filter>
  </defs>

  <g transform="translate(300,300)">
    <circle cx="0" cy="0" r="220" fill="url(#tomatoSkin)"/>
    <ellipse cx="-40" cy="20" rx="110" ry="100" fill="url(#cheekGlow)" opacity="0.35"/>
    <ellipse cx="65" cy="25" rx="95" ry="85" fill="url(#cheekGlow)" opacity="0.28"/>
    <ellipse cx="-55" cy="-85" rx="85" ry="60" fill="url(#highlight)" opacity="0.65"/>
  </g>

  <g transform="translate(300,295)">
    <g transform="translate(-78,-5)">
      <ellipse cx="0" cy="0" rx="56" ry="34" fill="url(#eyeWhite)"/>
      <ellipse cx="-6" cy="0" rx="18" ry="18" fill="url(#irisGrad)"/>
      <circle cx="-6" cy="0" r="7" fill="#0a1624"/>
      <circle cx="-2" cy="-4" r="3.5" fill="#ffffff"/>
      <path d="M-56,-6 C-22,-22 22,-22 56,-6" fill="none" stroke="#3a0b0b" stroke-width="8" stroke-linecap="round"/>
      <path d="M-54,-4 C-20,-16 20,-16 54,-4" fill="none" stroke="#7a1a1a" stroke-width="3" stroke-linecap="round" opacity="0.5"/>
      <path d="M-56,10 C-22,26 22,26 56,10" fill="none" stroke="rgba(0,0,0,0.2)" stroke-width="5" stroke-linecap="round"/>
    </g>
    <g transform="translate(78,-5)">
      <ellipse cx="0" cy="0" rx="56" ry="34" fill="url(#eyeWhite)"/>
      <ellipse cx="6" cy="0" rx="18" ry="18" fill="url(#irisGrad)"/>
      <circle cx="6" cy="0" r="7" fill="#0a1624"/>
      <circle cx="10" cy="-4" r="3.5" fill="#ffffff"/>
      <path d="M-56,-6 C-22,-22 22,-22 56,-6" fill="none" stroke="#3a0b0b" stroke-width="8" stroke-linecap="round"/>
      <path d="M-54,-4 C-20,-16 20,-16 54,-4" fill="none" stroke="#7a1a1a" stroke-width="3" stroke-linecap="round" opacity="0.5"/>
      <path d="M-56,10 C-22,26 22,26 56,10" fill="none" stroke="rgba(0,0,0,0.2)" stroke-width="5" stroke-linecap="round"/>
    </g>

    <g transform="translate(0,58)">
      <path d="M-32,-24 C-18,-35 18,-35 32,-24 C20,-10 -20,-10 -32,-24 Z" fill="rgba(0,0,0,0.25)" filter="url(#soft)"/>
      <path d="M-42,-28 C-18,-52 18,-52 42,-28 C30,-12 -30,-12 -42,-28 Z" fill="url(#noseShade)" />
      <ellipse cx="0" cy="-22" rx="8" ry="4" fill="rgba(255,255,255,0.35)" opacity="0.7"/>
    </g>

    <g transform="translate(0,130)">
      <path d="M-98,-8 C-52,30 52,30 98,-8 C70,20 -70,20 -98,-8 Z" fill="rgba(0,0,0,0.25)" filter="url(#soft)"/>
      <path d="M-105,-12 C-58,38 58,38 105,-12 C80,8 -80,8 -105,-12 Z" fill="#2b0e0e" opacity="0.35"/>
      <path d="M-105,-12 C-48,10 48,10 105,-12 C72,46 -72,46 -105,-12 Z" fill="url(#lipGrad)"/>
      <path d="M-92,-12 C-40,8 40,8 92,-12" fill="none" stroke="#5a1412" stroke-width="4" stroke-linecap="round"/>
      <path d="M-85,-2 C-40,22 40,22 85,-2" fill="#7a1a1a" opacity="0.4"/>
      <path d="M-65,0 C-30,10 30,10 65,0" fill="none" stroke="rgba(255,255,255,0.35)" stroke-width="3" stroke-linecap="round"/>
      <ellipse cx="-35" cy="8" rx="10" ry="6" fill="rgba(255,255,255,0.2)"/>
      <ellipse cx="35" cy="8" rx="10" ry="6" fill="rgba(255,255,255,0.2)"/>
    </g>

    <g opacity="0.25">
      <path d="M-160,-50 C-165,30 -110,95 -40,120" fill="none" stroke="rgba(0,0,0,0.35)" stroke-width="12" stroke-linecap="round" filter="url(#soft)"/>
      <path d="M160,-50 C165,30 110,95 40,120" fill="none" stroke="rgba(0,0,0,0.35)" stroke-width="12" stroke-linecap="round" filter="url(#soft)"/>
    </g>
  </g>

  <g transform="translate(300,290)">
    <path d="M-130,40 C-150,70 -150,110 -130,140" fill="none" stroke="rgba(255,120,120,0.12)" stroke-width="20" stroke-linecap="round"/>
    <path d="M130,40 C150,70 150,110 130,140" fill="none" stroke="rgba(255,120,120,0.12)" stroke-width="20" stroke-linecap="round"/>
  </g>
</svg>
